<?xml version="1.0" standalone="no"?>
<!DOCTYPE svg PUBLIC "-//W3C//DTD SVG 1.1//EN" "http://www.w3.org/Graphics/SVG/1.1/DTD/svg11.dtd">

<svg width="135" height="50" viewBox="0 0 135 50" preserveAspectRatio="none" 
  xmlns="http://www.w3.org/2000/svg"
  xmlns:xlink="http://www.w3.org/1999/xlink">


<polyline points="0.0, 11.551878458627957 0.7988165680473372, 10.605195329042314 1.5976331360946745, 10.570180011612958 2.396449704142012, 10.616367249988192 3.195266272189349, 6.896377155995981 3.994082840236686, 8.621282787770918 4.792899408284024, 4.748572072307689 5.591715976331361, 4.6892151588580715 6.390532544378698, 0.0 7.189349112426036, 0.47011700915888044 7.988165680473372, 1.3618198337037732 8.78698224852071, 6.180709570764472 9.585798816568047, 12.63760575831166 10.384615384615385, 24.6722230442998 11.183431952662723, 27.870820509169675 11.982248520710058, 22.780965526490274 12.781065088757396, 27.03487882190399 13.579881656804734, 27.4422966553526 14.378698224852071, 22.171715496211103 15.177514792899409, 24.910398056870495 15.976331360946745, 29.913692120180013 16.775147928994084, 30.375673411267705 17.57396449704142, 29.564205591225072 18.37278106508876, 28.90886200434541 19.171597633136095, 31.241859814373 19.970414201183434, 31.012773336475313 20.76923076923077, 29.13187550683121 21.56804733727811, 32.98643807548183 22.366863905325445, 34.39661069366638 23.16568047337278, 35.92740379742751 23.964497041420117, 35.22095247110191 24.763313609467456, 31.687671273573176 25.562130177514792, 33.26000937376191 26.36094674556213, 31.238264093114122 27.159763313609467, 32.9318011061635 27.958579881656807, 33.3741088406711 28.757396449704142, 34.903007833727514 29.55621301775148, 41.68920734403084 30.355029585798817, 37.26403194012688 31.153846153846157, 26.994637026102207 31.95266272189349, 25.82049282203706 32.751479289940825, 24.562551829297597 33.55029585798817, 11.01449662599911 34.349112426035504, 9.378910988465686 35.14792899408284, 9.667067133469692 35.94674556213018, 12.098764894125699 36.74556213017752, 12.19353960645037 37.54437869822485, 16.144523283740526 38.34319526627219, 13.406481171750151 39.142011834319526, 12.663266643704606 39.94082840236687, 5.5679516723250995 40.7396449704142, 3.8494251164018203 41.53846153846154, 6.388829262155454 42.337278106508876, 15.185483142104147 43.13609467455622, 20.491218646750074 43.93491124260355, 21.123117877147088 44.73372781065089, 18.37483446765587 45.532544378698226, 17.100919977942393 46.33136094674556, 19.430048282700067 47.1301775147929, 20.475301062220083 47.928994082840234, 17.57818828682347 48.72781065088758, 31.274193719223792 49.52662721893491, 34.448088238310746 50.32544378698225, 36.05904892552543 51.124260355029584, 34.19670683429241 51.92307692307693, 36.38046501896169 52.72189349112426, 38.03821513240358 53.5207100591716, 36.60889678108041 54.319526627218934, 48.72744408332259 55.11834319526627, 44.22606334123101 55.91715976331361, 42.99824169350226 56.71597633136094, 42.25897980670747 57.514792899408285, 42.034558429359286 58.31360946745562, 36.71553727271022 59.11242603550296, 35.63533221010899 59.91124260355029, 41.52056143372594 60.710059171597635, 43.13246377741732 61.50887573964497, 44.37386258258522 62.307692307692314, 45.431739501130664 63.10650887573964, 50.0 63.90532544378698, 47.09629559210497 64.70414201183432, 46.322967545559194 65.50295857988165, 44.27367968742397 66.30177514792899, 42.130892639890035 67.10059171597634, 44.1879299383727 67.89940828402366, 44.19575474784004 68.69822485207101, 44.71637393566305 69.49704142011834, 39.3573107466471 70.29585798816568, 37.057246390879286 71.09467455621302, 34.826289741145075 71.89349112426036, 34.138133826166275 72.6923076923077, 36.504219662093604 73.49112426035504, 32.41509443769734 74.28994082840237, 32.09954328340587 75.0887573964497, 29.72561525036681 75.88757396449704, 26.717680553163504 76.68639053254438, 25.194114292780306 77.48520710059172, 28.298000344060643 78.28402366863905, 28.23876440707757 79.0828402366864, 31.359267507641075 79.88165680473374, 29.52565271016533 80.68047337278107, 29.455872802217225 81.4792899408284, 31.93955894128258 82.27810650887574, 33.63854905396322 83.07692307692308, 29.831934953435614 83.87573964497041, 29.882550920053585 84.67455621301775, 26.424113227525574 85.4733727810651, 24.66375460180429 86.27218934911244, 27.41996610807917 87.07100591715975, 24.267483271874767 87.8698224852071, 24.261510646799458 88.66863905325444, 21.1918295908314 89.46745562130178, 20.991468028845297 90.26627218934911, 17.592752188639395 91.06508875739645, 21.352748428368436 91.8639053254438, 25.113328690767737 92.66272189349112, 24.408844224800646 93.46153846153845, 26.158400150541144 94.2603550295858, 25.337953002506335 95.05917159763314, 27.13754175621555 95.85798816568047, 26.023152231029528 96.65680473372781, 22.27952325910697 97.45562130177515, 23.898075244880605 98.2544378698225, 24.29154702264815 99.05325443786982, 24.593473044765148 99.85207100591715, 27.349484554484498 100.6508875739645, 26.948892059815233 101.44970414201183, 27.413870348809983 102.24852071005917, 31.92429914905743 103.04733727810651, 31.11446997596327 103.84615384615385, 32.808161603882255 104.64497041420118, 32.802519653492205 105.44378698224853, 32.36948756730127 106.24260355029585, 32.906909443120306 107.0414201183432, 31.83031968097303 107.84023668639053, 29.442996178612002 108.63905325443787, 32.938208306482004 109.43786982248521, 33.09472273096393 110.23668639053254, 33.31305336218385 111.03550295857988, 34.00122298790053 111.83431952662723, 33.20362935469277 112.63313609467457, 33.88827306416855 113.43195266272188, 31.169603708878846 114.23076923076923, 29.775714676123716 115.02958579881657, 32.31851264071031 115.82840236686391, 27.821436702002433 116.62721893491124, 25.82910411290381 117.42603550295858, 26.140659855463483 118.22485207100593, 24.258871160638492 119.02366863905324, 25.043255973885554 119.82248520710058, 27.418036373730324 120.62130177514793, 26.835143475090167 121.42011834319527, 28.98006755718958 122.2189349112426, 28.37900267542644 123.01775147928994, 26.184982315287698 123.81656804733728, 22.299507892814884 124.61538461538463, 22.00942606684011 125.41420118343194, 19.36145385577958 126.21301775147928, 16.54136810410903 127.01183431952663, 20.615614864799696 127.81065088757396, 17.422523012418935 128.60946745562129, 19.105604051180382 129.40828402366864, 22.109653148115502 130.20710059171597, 24.873463308284382 131.0059171597633, 29.63249313662827 131.80473372781066, 27.884587432029246 132.60355029585799, 26.351622543766624 133.40236686390534, 25.56041766669135 134.20118343195267, 24.98357365055454" fill="none" stroke="#ff3a33" stroke-width="1.25"/>

</svg>