<?xml version="1.0" standalone="no"?>
<!DOCTYPE svg PUBLIC "-//W3C//DTD SVG 1.1//EN" "http://www.w3.org/Graphics/SVG/1.1/DTD/svg11.dtd">

<svg width="135" height="50" viewBox="0 0 135 50" preserveAspectRatio="none" 
  xmlns="http://www.w3.org/2000/svg"
  xmlns:xlink="http://www.w3.org/1999/xlink">


<polyline points="0.0, 48.291474520328876 0.7988165680473372, 43.994467784962865 1.5976331360946745, 44.51741263444022 2.396449704142012, 45.08246356495825 3.195266272189349, 42.15528261672824 3.994082840236686, 48.64344107528527 4.792899408284024, 50.0 5.591715976331361, 47.283735784354036 6.390532544378698, 47.913119754608125 7.189349112426036, 48.28708638925605 7.988165680473372, 45.234303031517186 8.78698224852071, 39.66079801880275 9.585798816568047, 29.069531714059156 10.384615384615385, 28.482977698671235 11.183431952662723, 32.03957522520922 11.982248520710058, 30.549382297356054 12.781065088757396, 30.790754815584698 13.579881656804734, 30.46528263494891 14.378698224852071, 34.42014784501829 15.177514792899409, 37.13355384462873 15.976331360946745, 40.174661294727684 16.775147928994084, 34.6727243344545 17.57396449704142, 33.66211792984298 18.37278106508876, 24.05499003799241 19.171597633136095, 27.681374176377222 19.970414201183434, 29.12194088771829 20.76923076923077, 27.708715335024493 21.56804733727811, 26.98010764091943 22.366863905325445, 27.031546500615022 23.16568047337278, 32.67282494572795 23.964497041420117, 32.508664720620615 24.763313609467456, 31.59731057858538 25.562130177514792, 34.582443984242055 26.36094674556213, 31.380571380317928 27.159763313609467, 37.14496671715444 27.958579881656807, 35.367299058197055 28.757396449704142, 41.63141560052782 29.55621301775148, 47.24167092234827 30.355029585798817, 45.93793584865675 31.153846153846157, 35.029536342243475 31.95266272189349, 31.720356516403207 32.751479289940825, 33.793074665782505 33.55029585798817, 35.82677094215387 34.349112426035504, 37.001125837178634 35.14792899408284, 36.3834089529988 35.94674556213018, 34.62549401599325 36.74556213017752, 30.364048096836044 37.54437869822485, 35.193165426577906 38.34319526627219, 35.870428417504556 39.142011834319526, 32.37950290903278 39.94082840236687, 32.607061541572634 40.7396449704142, 31.431955033382536 41.53846153846154, 28.794884742896524 42.337278106508876, 28.996808986154715 43.13609467455622, 31.448309768985606 43.93491124260355, 27.77747941835121 44.73372781065089, 23.9080174738731 45.532544378698226, 23.540116444687772 46.33136094674556, 24.974041602965 47.1301775147929, 20.950350700449857 47.928994082840234, 7.468016859283434 48.72781065088758, 18.241169629600964 49.52662721893491, 28.134334899600265 50.32544378698225, 32.174523894228926 51.124260355029584, 23.204770463195707 51.92307692307693, 26.88811577771977 52.72189349112426, 28.522407861065407 53.5207100591716, 31.5161523236544 54.319526627218934, 28.346160198701178 55.11834319526627, 32.65159659875536 55.91715976331361, 19.67112737231976 56.71597633136094, 24.538578345219474 57.514792899408285, 29.538970647341618 58.31360946745562, 24.392269659551292 59.11242603550296, 23.872718334311962 59.91124260355029, 21.97349861267594 60.710059171597635, 25.932523713245015 61.50887573964497, 24.72135001949346 62.307692307692314, 37.726486531763825 63.10650887573964, 47.06314169683887 63.90532544378698, 45.74902609561586 64.70414201183432, 45.70123491984203 65.50295857988165, 44.312383362344804 66.30177514792899, 42.63709352593212 67.10059171597634, 40.757052846758576 67.89940828402366, 40.336617901154334 68.69822485207101, 43.79722940159194 69.49704142011834, 40.5711789984114 70.29585798816568, 42.39844403901864 71.09467455621302, 47.83100910254796 71.89349112426036, 40.15228471363856 72.6923076923077, 36.855842491437784 73.49112426035504, 35.55893559736876 74.28994082840237, 36.305983563774355 75.0887573964497, 36.31325760176442 75.88757396449704, 36.12253375070429 76.68639053254438, 37.754055449828314 77.48520710059172, 40.05120479595259 78.28402366863905, 39.185981751403254 79.0828402366864, 36.97050141513318 79.88165680473374, 34.82637703756969 80.68047337278107, 30.41520227494241 81.4792899408284, 33.52469924025232 82.27810650887574, 34.489675008074926 83.07692307692308, 34.44273249789726 83.87573964497041, 35.29782428184396 84.67455621301775, 33.22358642691385 85.4733727810651, 31.16499502941501 86.27218934911244, 37.43642392692863 87.07100591715975, 35.5988945726175 87.8698224852071, 36.31529899703047 88.66863905325444, 33.8001878122078 89.46745562130178, 35.373022582632906 90.26627218934911, 33.9936415568318 91.06508875739645, 35.38011457190008 91.8639053254438, 32.864870927089136 92.66272189349112, 32.734133104456085 93.46153846153845, 34.6576156692466 94.2603550295858, 35.47674508630835 95.05917159763314, 35.058392763000626 95.85798816568047, 33.74702575157961 96.65680473372781, 34.48422447221224 97.45562130177515, 32.624511423731434 98.2544378698225, 35.90901145794704 99.05325443786982, 31.17103855746918 99.85207100591715, 34.259996446129364 100.6508875739645, 32.605185905404824 101.44970414201183, 32.208066087004134 102.24852071005917, 28.011044565598908 103.04733727810651, 28.54494771882658 103.84615384615385, 25.085330645130465 104.64497041420118, 24.770234257526454 105.44378698224853, 24.56588276921952 106.24260355029585, 25.185161262801103 107.0414201183432, 24.66628740556337 107.84023668639053, 17.387749822285485 108.63905325443787, 20.142712623122637 109.43786982248521, 15.824565652835828 110.23668639053254, 18.138150759295105 111.03550295857988, 18.56531758833157 111.83431952662723, 15.064980792970658 112.63313609467457, 16.095182486216512 113.43195266272188, 17.262708896035907 114.23076923076923, 20.291234580932052 115.02958579881657, 21.857297952299447 115.82840236686391, 19.8134636094953 116.62721893491124, 12.567359222417332 117.42603550295858, 6.812993347283972 118.22485207100593, 7.8134985938954795 119.02366863905324, 7.460653468724029 119.82248520710058, 8.601806153330662 120.62130177514793, 9.683110253909142 121.42011834319527, 7.423813958402289 122.2189349112426, 7.584578633313939 123.01775147928994, 9.394655864356144 123.81656804733728, 7.659107374104064 124.61538461538463, 9.566755779644758 125.41420118343194, 7.9728213498665195 126.21301775147928, 5.147096182951535 127.01183431952663, 2.5605669895973526 127.81065088757396, 0.0 128.60946745562129, 2.140911889706289 129.40828402366864, 3.6734522473510314 130.20710059171597, 6.021237638853919 131.0059171597633, 14.354628941742867 131.80473372781066, 11.833653654603829 132.60355029585799, 12.367867757627552 133.40236686390534, 12.25934194461697 134.20118343195267, 12.267180558415818" fill="none" stroke="#32ca5b" stroke-width="1.25"/>

</svg>